<?xml version="1.0" encoding="UTF-8" standalone="no"?>
<!-- Created with Inkscape (http://www.inkscape.org/) -->

<svg
   xmlns:dc="http://purl.org/dc/elements/1.1/"
   xmlns:cc="http://creativecommons.org/ns#"
   xmlns:rdf="http://www.w3.org/1999/02/22-rdf-syntax-ns#"
   xmlns:svg="http://www.w3.org/2000/svg"
   xmlns="http://www.w3.org/2000/svg"
   xmlns:sodipodi="http://sodipodi.sourceforge.net/DTD/sodipodi-0.dtd"
   xmlns:inkscape="http://www.inkscape.org/namespaces/inkscape"
   width="64px"
   height="64px"
   id="svg2985"
   version="1.1"
   inkscape:version="0.48.4 r9939"
   sodipodi:docname="newlogo_plain.svg"
   inkscape:export-filename="/home/nicolet/Pictures/wip/newlogo_sm.png"
   inkscape:export-xdpi="87.610619"
   inkscape:export-ydpi="87.610619">
  <sodipodi:namedview
     id="base"
     pagecolor="#ffffff"
     bordercolor="#666666"
     borderopacity="1.0"
     inkscape:pageopacity="0.0"
     inkscape:pageshadow="2"
     inkscape:zoom="7.9999999"
     inkscape:cx="39.313683"
     inkscape:cy="30.513798"
     inkscape:current-layer="layer1"
     showgrid="true"
     inkscape:document-units="px"
     inkscape:grid-bbox="true"
     inkscape:window-width="1366"
     inkscape:window-height="746"
     inkscape:window-x="0"
     inkscape:window-y="0"
     inkscape:window-maximized="1" />
  <defs
     id="defs2987" />
  <metadata
     id="metadata2990">
    <rdf:RDF>
      <cc:Work
         rdf:about="">
        <dc:format>image/svg+xml</dc:format>
        <dc:type
           rdf:resource="http://purl.org/dc/dcmitype/StillImage" />
        <dc:title></dc:title>
      </cc:Work>
    </rdf:RDF>
  </metadata>
  <g
     inkscape:groupmode="layer"
     inkscape:label="Layer 1"
     id="layer1">
    <path
       transform="translate(-3.9090919,-11.18182)"
       d="m 66.727274,43.18182 a 30.818182,30.818182 0 1 1 -61.636364,0 30.818182,30.818182 0 1 1 61.636364,0 z"
       sodipodi:ry="30.818182"
       sodipodi:rx="30.818182"
       sodipodi:cy="43.18182"
       sodipodi:cx="35.909092"
       id="path3829"
       style="fill:#ff2a41;stroke:none;stroke-width:1;stroke-linejoin:round;stroke-miterlimit:4;stroke-opacity:1;stroke-dasharray:none;stroke-dashoffset:0;fill-opacity:1;fill-rule:nonzero"
       sodipodi:type="arc" />
    <path
       sodipodi:nodetypes="cssscc"
       inkscape:connector-curvature="0"
       id="path2993"
       d="M 30.224931,38.843675 C 4.6380067,38.971932 7.8174894,39.95506 7.5878776,37.0481 7.4029249,34.706542 9.7040894,33.649337 11.435536,33.00806 c 8.672879,-3.212182 17.955736,-4.809571 20.520841,-8.91374 2.565106,-4.104168 17.699227,6.797528 17.699227,6.797528 L 37.27897,34.354741"
       style="fill:none;stroke:#ffffff;stroke-width:1.41080785px;stroke-linecap:butt;stroke-linejoin:miter;stroke-opacity:1" />
    <path
       transform="matrix(3.0443749,0,0,3.0443749,-73.783706,-81.161043)"
       d="m 42.772727,36.886364 a 2.5227273,2.5227273 0 1 1 -5.045454,0 2.5227273,2.5227273 0 1 1 5.045454,0 z"
       sodipodi:ry="2.5227273"
       sodipodi:rx="2.5227273"
       sodipodi:cy="36.886364"
       sodipodi:cx="40.25"
       id="path2999"
       style="fill:none;stroke:#ffffff;stroke-width:0.46341464;stroke-linejoin:round;stroke-miterlimit:4;stroke-opacity:1;stroke-dasharray:none;stroke-dashoffset:0"
       sodipodi:type="arc" />
    <path
       sodipodi:nodetypes="ccsssc"
       inkscape:connector-curvature="0"
       id="path3769"
       d="m 18.459412,14.703993 c 17.280516,25.171163 20.572051,27.925183 20.572051,27.925183 0,0 -1.353907,1.208367 -0.09619,2.907588 3.378956,4.565099 3.950437,4.075643 4.89727,3.12881 0.930679,-0.930679 2.437364,-1.378111 -0.570703,-4.553292 -1.647318,-1.738833 -2.243248,-2.459636 -4.262438,-1.451043"
       style="fill:none;stroke:#ffffff;stroke-width:1.41080785px;stroke-linecap:butt;stroke-linejoin:miter;stroke-opacity:1" />
     </g>
</svg>
